<svg xmlns="http://www.w3.org/2000/svg" viewBox="0 0 1600 900"><defs><linearGradient id="g" x1="0" y1="0" x2="1" y2="1"><stop offset="0" stop-color="#0e3b43"/><stop offset="1" stop-color="#1fae9b"/></linearGradient></defs><rect width="1600" height="900" fill="url(#g)"/><g opacity=".08" fill="#fff"><circle cx="160" cy="780" r="260"/><circle cx="1480" cy="120" r="200"/></g><g transform="translate(0 110)"><path d="M800 520c-90-70-210-150-210-250 0-60 45-105 105-105 45 0 80 25 105 60 25-35 60-60 105-60 60 0 105 45 105 105 0 100-120 180-210 250z" fill="#fff" opacity=".92"/><path d="M420 330h150l40-80 60 170 45-110 30 20h240" fill="none" stroke="#e8a33d" stroke-width="16" stroke-linecap="round" stroke-linejoin="round"/></g></svg>